<?xml version="1.0" encoding="UTF-8"?>
<svg id="metatrybe_logo_layers" xmlns="http://www.w3.org/2000/svg" version="1.1" viewBox="0 0 1255 402">
  <!-- Generator: Adobe Illustrator 29.5.1, SVG Export Plug-In . SVG Version: 2.1.0 Build 141)  -->
  <path id="Donut" d="M291.1,107.5c-23.2-22.2-54.7-35.8-89.3-35.8-71.4,0-129.3,57.9-129.3,129.3s57.9,129.3,129.3,129.3,66.5-13.8,89.8-36.3l88-.3c-33.4,64.1-100.5,107.7-177.7,107.7C91.2,401.5,1.4,311.8,1.4,201S91.1.5,201.8.5s143.7,43.4,177.3,107h-88Z"/>
  <path id="Metatrybe" d="M1024.9,125.6v115.5l-.5,28.3v6.6c0,1.8-1.6,3.4-3.4,3.4h-24.6c-1.8,0-3.4-1.6-3.4-3.4v-146.2c0-1.6,1.2-3,2.8-3.3l25-4.2c2-.4,4,1.3,4,3.3h0ZM1091.9,163.6c-8.6-5.5-18.2-8.3-28.8-8.3s-21.5,3.5-30.3,10.4c-.8.6-1.2,1.6-1.2,2.5v16.7c0,3.1,4.2,4.8,6.8,3.1,1.6-1,3.1-1.8,4.8-2.5,4.6-2,9.6-3,15-3s11.7,1.6,16.6,4.7c5,2.9,8.9,7.1,11.8,12.5,2.8,5.2,4.3,11.2,4.3,17.8s-1.5,12.6-4.3,17.8c-2.9,5.2-6.8,9.4-11.8,12.5-4.8,3.1-10.4,4.7-16.6,4.7s-10.4-1-15-3c-1.8-.9-3.6-1.8-5.2-2.9-2.5-1.6-6.5,0-6.5,3l-.3,18.1c0,1.1.5,2.1,1.4,2.7,4.1,2.7,8.4,4.9,13.2,6.4,5.3,1.7,10.8,2.5,16.4,2.5,10.8,0,20.6-2.7,29.3-8.1,8.7-5.5,15.7-13,20.8-22.3,5.1-9.4,7.8-20,7.8-31.5s-2.6-22-7.8-31.3c-5-9.4-11.8-17-20.5-22.5h0ZM790.7,154.1h-25c-1.8,0-3.4,1.6-3.4,3.4v118.6c0,1.8,1.6,3.4,3.4,3.4h25c1.8,0,3.4-1.6,3.4-3.4v-118.6c0-1.8-1.6-3.4-3.4-3.4h0ZM838,155.9c-2.4-1.2-5.6-1.7-9.7-1.9-5.7,0-11,1.4-15.5,4.2-4.4,2.6-8.1,6.4-11.2,11.2-.4.5-.5,1.2-.5,1.7v12.6c0,3.6,6.3,5.4,9.1,3.2.4-.3.9-.7,1.3-1,4.4-3.1,9.1-4.7,14.3-4.7s4.9.3,7.3,1c.4,0,.8.2,1.2.3,2.5.6,5.3-1.1,5.3-3.7v-20.4c0-1.1-.6-2.1-1.6-2.6h0ZM1253.2,207.9c0-1.8-1.6-3.3-3.4-3.3h-64.8c-2.6,0-4.3,2.8-2.9,5l9.4,16c.6,1.1,1.7,1.6,2.9,1.6h55.8c1.8,0,3.4-1.6,3.4-3.5l-.5-16h0ZM1228.3,245.3c-1.3-1.2-3.3-1.2-4.7,0-2.7,2.1-5.9,3.8-9.5,5.1-4.5,1.6-9.4,2.5-14.8,2.5s-10.5-1.1-15.3-3.2c-4.7-2.1-8.5-5.1-11.8-8.9-3.1-3.9-5.3-8.1-6.7-12.9,0,0-1.7-5.4-1.7-10.6s1.4-11.9,1.4-11.9c1.3-4.9,3.2-9.1,6-12.6,2.8-3.7,6.1-6.5,10-8.5,4.1-2,8.5-3,13.5-3s9.1,1.1,13,3.2c4,2,7.5,4.8,10.2,8.5,1,1.2,2,2.8,2.9,4.5.7,1.2,1.8,1.8,3.1,1.8l24-.2c2.2,0,3.9-2.2,3-4.3-1.1-2.7-2.3-5.5-3.7-8-5.1-9.7-12.1-17.4-21.1-23-8.9-5.6-19.2-8.5-30.8-8.5s-22.1,2.7-31.5,8.2-17,13-22.5,22.3c-5.4,9.3-8.1,19.9-8.1,31.5s2.9,22.1,8.5,31.5c5.7,9.3,13.5,16.8,23.2,22.3,9.9,5.5,20.8,8.2,33,8.2s18.5-1.4,26.2-4.2c6.8-2.3,13.4-5.9,19.8-10.7,1.6-1.3,1.7-3.7.2-5l-15.6-14.2v-.2h0ZM975.2,154.1h-27c-1.4,0-2.6.8-3.1,2l-33.3,80.3-18.1,39.7-1.8,4.7c-4.5,11-12.5,16.5-24.1,16.5s-4.9,0-7.1-.3c-2.1-.2-4.1,1.4-4.1,3.5v20.5c0,1.6,1.2,3,2.8,3.2,1.1,0,2.2.2,3.5.3,2.6.3,5.3.5,8.1.5,8.8,0,16.4-1.4,22.7-4,6.5-2.6,12.2-6.9,17.2-12.8,4.9-5.9,9.5-13.7,13.7-23.5l53.6-125.9c1-2.2-.7-4.7-3.1-4.7h0ZM893.5,255.4l14.3-31.2c.4-.8.4-1.7,0-2.6l-25.2-65.4c-.5-1.3-1.7-2.1-3.1-2.1h-27.7c-2.4,0-4,2.4-3.1,4.7l38.7,96.7c1.1,2.7,4.9,2.8,6.2.2h0ZM746.4,252.2h-21.5c-.5,0-4-1.6-4.5-1.9-.4-.4-1.7-3.1-1.7-3.4v-63.1h-31v66.6c0,1.6,1.7,7.9,2.4,9.7,5.8,16.5,23.4,20.8,39.3,19,6.4-.8,12.1-2.7,17.7-5.7.4-.2.6-.6.6-1v-18.9c0-.7-.5-1.2-1.2-1.2h0ZM744.9,175.7v-23.8c0-.8-.7-1.3-1.4-1.2l-23.6,2.7c-.7.2-1.4-.4-1.4-1.2v-29.7c0-.7-.5-1.2-1.2-1.2h-9.5c-.4,0-.8.2-1,.5l-23.1,33c0,0-.2.2-.4.3l-14.9,8.8c-.4.2-.6.6-.6,1v10.5c0,.7.5,1.2,1.2,1.2h74.5c.7,0,1.2-.5,1.2-1.2v.2h0ZM438.4,204.6h-64.8c-2.6,0-4.3,2.8-2.9,5l9.4,16c.6,1.1,1.7,1.6,2.9,1.6h55.8c1.9,0,3.4-1.6,3.4-3.5l-.5-16c0-1.8-1.6-3.3-3.4-3.3h0ZM416.8,245.3c-1.3-1.2-3.3-1.2-4.7,0-2.7,2.1-5.9,3.8-9.5,5.1-4.5,1.6-9.4,2.5-14.8,2.5s-10.5-1.1-15.3-3.2c-4.7-2.1-8.5-5.1-11.8-8.9-3.1-3.9-5.3-8.1-6.7-12.9,0,0-1.7-5.4-1.7-10.6s1.4-11.9,1.4-11.9c1.3-4.9,3.2-9.1,6-12.6,2.8-3.7,6.1-6.5,10-8.5,4-2,8.5-3,13.5-3s9.1,1.1,13,3.2c4,2,7.5,4.8,10.2,8.5,1,1.2,2,2.8,2.9,4.5.7,1.2,1.8,1.8,3.1,1.8l24-.2c2.2,0,3.9-2.2,3-4.3-1.1-2.7-2.3-5.5-3.7-8-5.1-9.7-12.1-17.4-21.1-23-8.9-5.6-19.3-8.5-30.8-8.5s-22.1,2.7-31.5,8.2c-9.4,5.5-17,13-22.5,22.3-5.4,9.3-8.1,19.9-8.1,31.5s2.8,22.1,8.5,31.5c5.7,9.3,13.5,16.8,23.2,22.3,9.9,5.5,20.8,8.2,33,8.2s18.5-1.4,26.2-4.2c6.8-2.3,13.4-5.9,19.9-10.7,1.6-1.3,1.7-3.7.2-5l-15.6-14.2v-.2h0ZM531.4,252.2h-21.5c-.5,0-4-1.6-4.5-1.9-.4-.4-1.7-3.1-1.7-3.4v-63.1h-31v66.6c0,1.6,1.7,7.9,2.4,9.7,5.8,16.5,23.4,20.8,39.3,19,6.4-.8,12.1-2.7,17.7-5.7.4-.2.6-.6.6-1.1v-18.9c0-.7-.5-1.2-1.2-1.2h0ZM530.1,175.7v-23.8c0-.8-.7-1.3-1.4-1.2l-23.6,2.7c-.7.2-1.4-.4-1.4-1.2v-29.7c0-.7-.5-1.2-1.2-1.2h-9.5c-.4,0-.8.2-1,.5l-23.1,33c0,0-.2.2-.4.3l-14.9,8.8c-.4.2-.6.6-.6,1v10.5c0,.7.5,1.2,1.2,1.2h74.5c.7,0,1.2-.5,1.2-1.2v.2h0ZM611.3,154.5c-18.9,0-32,3.9-36,5.2-.8.3-1.5.9-1.8,1.6l-7.5,16.5c-1.2,2.5,1,5.2,3.7,4.8,8.9-1.5,25.2-3.9,35.2-3.9,14.3,0,27.1,9.9,27.1,22.2l.2,74.7c0,1.8,1.6,3.4,3.4,3.4h17.6c1.8,0,3.4-1.6,3.4-3.4l-.2-74.7c0-25.7-22.2-46.5-45.1-46.5h0ZM625,211.1c-4.3-2.6-18.1-10.1-38.8-10.7-25.2-.7-39.9,17.6-39.9,40s16.9,37.8,39.9,38.6c20.1.6,35.8-3,39.5-4,.5,0,.8-.6.8-1.1v-21.6c0-.8-.9-1.4-1.6-1.1-15.4,6.2-32.9,4.7-40.2,3.6-7.6-1-15-6.1-15-14.4s6.1-15.3,15-15.9c16.7-1.1,31.6,5.7,38.2,9.3,1.6.9,3.6-.3,3.6-2v-17.9c0-1.1-.5-2.1-1.5-2.6v-.2h0ZM224.6,232.7c.4-.9.4-1.9,0-2.8l-48.3-106.4c-.6-1.2-1.7-1.9-3.1-1.9h-22.2c-1.8,0-3.4,1.6-3.4,3.4v150.8c0,1.8,1.6,3.4,3.4,3.4h20.2c1.8,0,3.4-1.6,3.4-3.4v-83.4c0-3.6,4.9-4.7,6.4-1.4l28.2,62.1c1.2,2.6,4.9,2.6,6.1,0l9.3-20.3h0ZM270.4,143.1l-40.5,89.3h0l-14.4,31.4c-.4.9-.4,1.9,0,2.8l4.8,10.5c.6,1.2,1.7,1.9,3.1,1.9h9.1c1.4,0,2.5-.8,3.1-1.9l41.1-90.3c.2-.5.3-.9.3-1.4v-40.9c0-3.6-4.9-4.7-6.4-1.4h0ZM304.6,121.6h-20.1c-1.8,0-3.4,1.6-3.4,3.4v150.8c0,1.8,1.6,3.4,3.4,3.4h20.1c1.8,0,3.4-1.6,3.4-3.4V124.9c0-1.8-1.6-3.4-3.4-3.4h0Z"/>
</svg>